<svg width="19" height="18" viewBox="0 0 19 18" fill="none" xmlns="http://www.w3.org/2000/svg">
<path d="M4.71112 3.6V0.9C4.71112 0.402948 5.15577 0 5.70426 0H17.6219C18.1704 0 18.6151 0.402948 18.6151 0.9V13.5C18.6151 13.9971 18.1704 14.4 17.6219 14.4H14.6425V17.0992C14.6425 17.5967 14.1957 18 13.6426 18H1.73852C1.18627 18 0.73877 17.5999 0.73877 17.0992L0.741352 4.50078C0.741451 4.0033 1.1883 3.6 1.74126 3.6H4.71112ZM6.6974 3.6H14.6425V12.6H16.6288V1.8H6.6974V3.6ZM4.71112 8.1V9.9H10.67V8.1H4.71112ZM4.71112 11.7V13.5H10.67V11.7H4.71112Z" fill="black"/>
</svg>
