<svg width="19" height="18" viewBox="0 0 19 18" fill="none" xmlns="http://www.w3.org/2000/svg">
<path d="M7.88929 15.9732V12.96C7.88929 11.8057 8.77845 10.8968 10.0941 10.3789C9.26853 10.0692 8.37507 9.9 7.44238 9.9C5.75318 9.9 4.19275 10.4551 2.93117 11.394C3.71695 13.639 5.57675 15.3738 7.88929 15.9732ZM15.8258 12.6773C15.4744 12.1973 14.2986 11.7 12.8053 11.7C11.0122 11.7 9.67691 12.417 9.67691 12.96V16.2C12.2918 16.2 14.5789 14.7866 15.8258 12.6773ZM7.48707 8.55C8.59772 8.55 9.49815 7.64334 9.49815 6.525C9.49815 5.40662 8.59772 4.5 7.48707 4.5C6.37638 4.5 5.47599 5.40662 5.47599 6.525C5.47599 7.64334 6.37638 8.55 7.48707 8.55ZM12.8053 9.45C13.7926 9.45 14.5929 8.64414 14.5929 7.65C14.5929 6.65589 13.7926 5.85 12.8053 5.85C11.818 5.85 11.0176 6.65589 11.0176 7.65C11.0176 8.64414 11.818 9.45 12.8053 9.45ZM9.67691 18C4.74051 18 0.73877 13.9705 0.73877 9C0.73877 4.02943 4.74051 0 9.67691 0C14.6133 0 18.6151 4.02943 18.6151 9C18.6151 13.9705 14.6133 18 9.67691 18Z" fill="black"/>
<path d="M7.88929 15.9732V12.96C7.88929 11.8057 8.77845 10.8968 10.0941 10.3789C9.26853 10.0692 8.37507 9.9 7.44238 9.9C5.75318 9.9 4.19275 10.4551 2.93117 11.394C3.71695 13.639 5.57675 15.3738 7.88929 15.9732ZM15.8258 12.6773C15.4744 12.1973 14.2986 11.7 12.8053 11.7C11.0122 11.7 9.67691 12.417 9.67691 12.96V16.2C12.2918 16.2 14.5789 14.7866 15.8258 12.6773ZM7.48707 8.55C8.59772 8.55 9.49815 7.64334 9.49815 6.525C9.49815 5.40662 8.59772 4.5 7.48707 4.5C6.37638 4.5 5.47599 5.40662 5.47599 6.525C5.47599 7.64334 6.37638 8.55 7.48707 8.55ZM12.8053 9.45C13.7926 9.45 14.5929 8.64414 14.5929 7.65C14.5929 6.65589 13.7926 5.85 12.8053 5.85C11.818 5.85 11.0176 6.65589 11.0176 7.65C11.0176 8.64414 11.818 9.45 12.8053 9.45ZM9.67691 18C4.74051 18 0.73877 13.9705 0.73877 9C0.73877 4.02943 4.74051 0 9.67691 0C14.6133 0 18.6151 4.02943 18.6151 9C18.6151 13.9705 14.6133 18 9.67691 18Z" fill="black"/>
</svg>
