<svg width="21" height="17" viewBox="0 0 21 17" fill="none" xmlns="http://www.w3.org/2000/svg">
<path d="M10.1539 2.86402C7.31593 2.86402 4.47804 2.86422 1.64003 2.86352C1.44655 2.86352 1.25123 2.87372 1.06032 2.85052C0.414445 2.77232 -0.0187826 2.28782 0.000626589 1.68292C0.0195474 1.09772 0.459611 0.651616 1.08595 0.587016C1.18178 0.577116 1.27931 0.580716 1.37587 0.580716C7.21315 0.580316 13.0504 0.579716 18.8876 0.582116C19.0795 0.582216 19.2767 0.589417 19.4625 0.632117C19.9875 0.753117 20.3287 1.18702 20.3339 1.70872C20.3391 2.23042 20.0049 2.67512 19.4836 2.80082C19.2832 2.84912 19.0692 2.85712 18.8614 2.85732C15.959 2.86072 13.0565 2.85962 10.1539 2.85962V2.86402Z" fill="#6E7C7C"/>
<path d="M10.1164 9.6414C8.29471 9.6414 6.47318 9.6409 4.65164 9.6417C4.16385 9.642 3.7645 9.472 3.52579 9.0288C3.31766 8.6424 3.33829 8.2503 3.57767 7.8819C3.85452 7.4559 4.2789 7.3569 4.75522 7.3576C7.49576 7.3615 10.2361 7.3595 12.9765 7.3593C13.8631 7.3592 14.7497 7.3554 15.6363 7.3589C16.4202 7.3622 16.9325 7.8036 16.9454 8.477C16.9588 9.1691 16.4425 9.6339 15.6294 9.6365C13.7917 9.6424 11.954 9.6384 10.1164 9.6384V9.6414Z" fill="#6E7C7C"/>
<path d="M10.1879 14.1383C11.252 14.1382 12.316 14.134 13.3801 14.1397C14.1628 14.1439 14.6776 14.5904 14.6902 15.26C14.7028 15.9275 14.1851 16.4109 13.4124 16.4142C11.2522 16.4237 9.09185 16.4204 6.9317 16.421C6.44952 16.4211 6.0423 16.2682 5.7959 15.8239C5.58222 15.4383 5.59668 15.0478 5.82715 14.6762C6.08307 14.2635 6.48536 14.1367 6.94758 14.1377C8.02771 14.1399 9.10785 14.1383 10.1879 14.1383Z" fill="#6E7C7C"/>
</svg>
