<svg width="257" height="38" viewBox="0 0 257 38" fill="none" xmlns="http://www.w3.org/2000/svg">
<path d="M10.1539 14.864C7.31593 14.864 4.47804 14.8642 1.64003 14.8635C1.44655 14.8635 1.25123 14.8737 1.06032 14.8505C0.414445 14.7723 -0.0187826 14.2878 0.000626587 13.6829C0.0195474 13.0977 0.459611 12.6516 1.08595 12.587C1.18178 12.5771 1.27931 12.5807 1.37587 12.5807C7.21315 12.5803 13.0504 12.5797 18.8876 12.5821C19.0795 12.5822 19.2767 12.5894 19.4625 12.6321C19.9875 12.7531 20.3287 13.187 20.3339 13.7087C20.3391 14.2304 20.0049 14.6751 19.4836 14.8008C19.2832 14.8491 19.0692 14.8571 18.8614 14.8573C15.959 14.8607 13.0565 14.8596 10.1539 14.8596V14.864Z" fill="#6E7C7C"/>
<path d="M10.1154 21.6414C8.29373 21.6414 6.4722 21.6409 4.65066 21.6417C4.16287 21.642 3.76352 21.472 3.52481 21.0288C3.31668 20.6424 3.33731 20.2503 3.57669 19.8819C3.85354 19.4559 4.27792 19.3569 4.75424 19.3576C7.49478 19.3615 10.2351 19.3595 12.9755 19.3593C13.8621 19.3592 14.7487 19.3554 15.6353 19.3589C16.4192 19.3622 16.9315 19.8036 16.9444 20.477C16.9578 21.1691 16.4415 21.6339 15.6284 21.6365C13.7907 21.6424 11.953 21.6384 10.1154 21.6384V21.6414Z" fill="#6E7C7C"/>
<path d="M10.1874 26.1383C11.2515 26.1382 12.3155 26.134 13.3796 26.1397C14.1623 26.1439 14.6771 26.5904 14.6897 27.26C14.7023 27.9275 14.1846 28.4109 13.4119 28.4142C11.2517 28.4237 9.09137 28.4204 6.93122 28.421C6.44904 28.4211 6.04182 28.2682 5.79542 27.8239C5.58174 27.4383 5.5962 27.0478 5.82667 26.6762C6.08259 26.2635 6.48488 26.1367 6.9471 26.1377C8.02723 26.1399 9.10737 26.1383 10.1874 26.1383Z" fill="#6E7C7C"/>
</svg>
