<svg width="25" height="24" viewBox="0 0 25 24" fill="none" xmlns="http://www.w3.org/2000/svg">
<path d="M0.114895 11.9994C1.09274 5.17278 6.01904 0 12 0C17.9809 0 23.0063 5.17278 24.1149 11.9994C23.1371 18.8261 18.2107 23.9989 12.2298 23.9989C6.24883 23.9989 1.22347 18.8261 0.114895 11.9994ZM12.1788 18.6658C15.2417 18.6658 17.6962 15.6811 17.6609 11.9994C17.6257 8.31773 15.114 5.33309 12.0511 5.33309C8.98809 5.33309 6.53364 8.31773 6.5689 11.9994C6.60415 15.6811 9.11576 18.6658 12.1788 18.6658ZM12.1532 15.9993C10.3154 15.9993 8.80844 14.2085 8.78729 11.9994C8.76614 9.79035 10.2388 7.99963 12.0766 7.99963C13.9144 7.99963 15.4214 9.79035 15.4425 11.9994C15.4637 14.2085 13.9909 15.9993 12.1532 15.9993Z" fill="#1E90FF"/>
</svg>
