<svg width="22" height="22" viewBox="0 0 22 22" fill="none" xmlns="http://www.w3.org/2000/svg">
<path fill-rule="evenodd" clip-rule="evenodd" d="M0 10.8819C0 6.81421 0 4.7793 0.874878 3.26454C1.44727 2.27213 2.27209 1.44728 3.26447 0.874893C4.77924 0 6.81427 0 10.8818 0C14.9494 0 16.9844 0 18.4991 0.874893C19.4916 1.44728 20.3164 2.27213 20.8888 3.26454C21.7637 4.7793 21.7637 6.81421 21.7637 10.8819C21.7637 14.9495 21.7637 16.9844 20.8888 18.4992C20.3164 19.4916 19.4916 20.3165 18.4991 20.8888C16.9844 21.7637 14.9494 21.7637 10.8818 21.7637C6.81427 21.7637 4.77924 21.7637 3.26447 20.8888C2.27209 20.3165 1.44727 19.4916 0.874878 18.4992C0 16.9844 0 14.9495 0 10.8819ZM15.2706 10.8819C15.2706 11.303 14.9299 11.6436 14.5088 11.6436H11.6436V14.5088C11.6436 14.9299 11.303 15.2705 10.8818 15.2705C10.4607 15.2705 10.1201 14.9299 10.1201 14.5088V11.6436H7.25482C6.83374 11.6436 6.4931 11.303 6.4931 10.8819C6.4931 10.4607 6.83374 10.1201 7.25482 10.1201H10.1201V7.25494C10.1201 6.8338 10.4607 6.49319 10.8818 6.49319C11.303 6.49319 11.6436 6.8338 11.6436 7.25494V10.1201H14.5088C14.9299 10.1201 15.2706 10.4607 15.2706 10.8819Z" fill="white"/>
</svg>
