<svg width="37" height="29" viewBox="0 0 37 29" fill="none" xmlns="http://www.w3.org/2000/svg">
<path d="M0.138832 14.4993C1.62467 6.25044 9.02856 0 18.0001 0C26.9714 0 34.495 6.25044 36.1388 14.4993C34.653 22.7482 27.2491 28.9987 18.2777 28.9987C9.30623 28.9987 1.78263 22.7482 0.138832 14.4993ZM18.216 22.5545C22.8104 22.5545 26.5005 18.9481 26.4579 14.4993C26.4153 10.0506 22.6562 6.44415 18.0618 6.44415C13.4672 6.44415 9.77724 10.0506 9.81983 14.4993C9.86243 18.9481 13.6215 22.5545 18.216 22.5545ZM18.1852 19.3324C15.4284 19.3324 13.173 17.1687 13.1474 14.4993C13.1219 11.83 15.3359 9.66622 18.0926 9.66622C20.8492 9.66622 23.1047 11.83 23.1303 14.4993C23.1558 17.1687 20.9417 19.3324 18.1852 19.3324Z" fill="#D4D5D6"/>
</svg>
