<svg width="19" height="18" viewBox="0 0 19 18" fill="none" xmlns="http://www.w3.org/2000/svg">
<path d="M1.7319 0H17.6219C18.1704 0 18.6151 0.44772 18.6151 1V17C18.6151 17.5523 18.1704 18 17.6219 18H1.7319C1.18341 18 0.73877 17.5523 0.73877 17V1C0.73877 0.44772 1.18341 0 1.7319 0ZM2.72502 2V16H16.6288V2H2.72502ZM8.68379 9.792C7.80686 9.4062 7.1941 8.5252 7.1941 7.5C7.1941 6.11929 8.3057 5 9.67691 5C11.0481 5 12.1597 6.11929 12.1597 7.5C12.1597 8.5252 11.547 9.4062 10.67 9.792V13H8.68379V9.792Z" fill="black"/>
</svg>
