<svg width="29" height="38" viewBox="0 0 29 38" fill="none" xmlns="http://www.w3.org/2000/svg">
<path d="M12.0018 22.505L12.1295 36.3542H0.335333C0.264781 28.7054 5.48801 22.505 12.0018 22.505ZM11.9858 20.7738C7.09858 20.7738 3.09729 16.1257 3.04435 10.3869C2.99142 4.64814 6.90696 0 11.7942 0C16.6814 0 20.6827 4.64814 20.7356 10.3869C20.7885 16.1257 16.873 20.7738 11.9858 20.7738ZM26.0243 32.9473L28.2649 35.5501L26.2026 37.9983L23.962 35.3955C23.0897 36.0047 22.0687 36.3542 20.9751 36.3542C17.7183 36.3542 15.0494 33.2539 15.0142 29.4296C14.9789 25.6053 17.5906 22.505 20.8474 22.505C24.1042 22.505 26.7731 25.6053 26.8083 29.4296C26.8202 30.7137 26.5336 31.9164 26.0243 32.9473ZM20.9432 32.8919C22.5717 32.8919 23.8774 31.3418 23.8598 29.4296C23.8422 27.5173 22.5078 25.9673 20.8793 25.9673C19.2508 25.9673 17.9451 27.5173 17.9627 29.4296C17.9804 31.3418 19.3147 32.8919 20.9432 32.8919Z" fill="#D4D5D6"/>
</svg>
