<svg width="36" height="29" viewBox="0 0 36 29" fill="none" xmlns="http://www.w3.org/2000/svg">
<path d="M8.4269 9.32776C9.11382 11.3796 11.3718 12.8883 14.0374 12.8883H21.7441C26.5036 12.8883 30.4836 15.7745 31.2993 19.5678C33.6227 20.1971 35.3151 22.0177 35.335 24.1656C35.3596 26.8349 32.7918 28.9987 29.5995 28.9987C26.4071 28.9987 23.7994 26.8349 23.7748 24.1656C23.756 22.125 25.2522 20.3798 27.3842 19.6709C26.6973 17.6191 24.4394 16.1104 21.7738 16.1104H14.0671C11.8984 16.1104 9.89153 15.5112 8.27215 14.5L8.31926 19.6075C10.5703 20.2709 12.1953 22.0612 12.2147 24.1656C12.2393 26.8349 9.67143 28.9987 6.4792 28.9987C3.28696 28.9987 0.679167 26.8349 0.654545 24.1656C0.635135 22.0612 2.22704 20.2709 4.46588 19.6075L4.37164 9.3912C2.12057 8.72773 0.495632 6.93748 0.476222 4.83311C0.4516 2.16386 3.01947 0 6.21171 0C9.40394 0 12.0117 2.16386 12.0364 4.83311C12.0552 6.87367 10.5589 8.61886 8.4269 9.32776Z" fill="#D4D5D6"/>
</svg>
