<svg width="36" height="29" viewBox="0 0 36 29" fill="none" xmlns="http://www.w3.org/2000/svg">
<path d="M2.27337 0L33.1004 0C34.1645 0 35.0337 0.721294 35.042 1.61104L35.2797 27.3876C35.2879 28.2774 34.432 28.9987 33.3679 28.9987H2.54085C1.47678 28.9987 0.607512 28.2774 0.599305 27.3876L0.36154 1.61104C0.353333 0.721294 1.2093 0 2.27337 0ZM14.2298 3.22207C8.70694 3.22207 4.27108 7.69904 4.32202 13.2216L4.34559 15.777C4.39653 21.2996 8.91498 25.7766 14.4378 25.7766H21.4115C26.9343 25.7766 31.3702 21.2996 31.3192 15.777L31.2957 13.2216C31.2447 7.69904 26.7263 3.22207 21.2034 3.22207H14.2298ZM12.6569 12.8883C14.4364 12.8883 15.8658 11.4457 15.8494 9.66622L15.8374 8.37075C15.8276 7.30672 16.6822 6.44415 17.7463 6.44415C18.8104 6.44415 19.681 7.30672 19.6908 8.37076L19.7027 9.66622C19.7192 11.4457 21.1751 12.8883 22.9547 12.8883H25.8281C26.7179 12.8883 27.4459 13.6096 27.4541 14.4993C27.4623 15.3891 26.7476 16.1104 25.8578 16.1104H22.9844C21.2048 16.1104 19.7755 17.5529 19.7919 19.3324L19.8038 20.6279C19.8137 21.692 18.959 22.5545 17.8949 22.5545C16.8308 22.5545 15.9603 21.6919 15.9505 20.6279L15.9385 19.3324C15.9221 17.5529 14.4662 16.1104 12.6866 16.1104H9.81315C8.92336 16.1104 8.19539 15.3891 8.18718 14.4993C8.17897 13.6096 8.89364 12.8883 9.78343 12.8883H12.6569Z" fill="#D4D5D6"/>
</svg>
