<svg width="37" height="29" viewBox="0 0 37 29" fill="none" xmlns="http://www.w3.org/2000/svg">
<path d="M5.90634 23.1989H9.69582L9.72358 26.0988H32.4604L32.2383 2.89987H9.50145L9.52922 5.79973H5.73974L5.69809 1.44993C5.69043 0.649164 6.53252 0 7.57895 0L34.1053 0C35.1517 0 36.0062 0.649164 36.0139 1.44993L36.2638 27.5487C36.2714 28.3495 35.4294 28.9987 34.3829 28.9987H7.85661C6.81019 28.9987 5.95566 28.3495 5.94799 27.5487L5.90634 23.1989ZM9.59863 13.0494H22.8618L22.8896 15.9493H9.6264L9.66805 20.2991L0.138832 14.4993L9.55698 8.6996L9.59863 13.0494Z" fill="#D4D5D6"/>
</svg>
