<svg width="31" height="24" viewBox="0 0 31 24" fill="none" xmlns="http://www.w3.org/2000/svg">
<path d="M30.6739 2.84123C29.5582 3.32308 28.3695 3.64247 27.1301 3.79754C28.4051 3.048 29.3782 1.87016 29.8357 0.450463C28.647 1.14831 27.3345 1.64124 25.9357 1.91631C24.807 0.73292 23.1982 0 21.4432 0C18.0382 0 15.297 2.72123 15.297 6.05723C15.297 6.53723 15.3382 6.99878 15.4395 7.43816C10.3264 7.19261 5.80196 4.77969 2.76258 1.10401C2.23196 2.01046 1.92071 3.048 1.92071 4.16492C1.92071 6.26216 3.01758 8.12123 4.65258 9.19755C3.66446 9.17908 2.69508 8.89662 1.87383 8.4517C1.87383 8.47016 1.87383 8.49415 1.87383 8.51816C1.87383 11.4609 4.00571 13.9052 6.80133 14.4683C6.30071 14.6031 5.75508 14.6677 5.18883 14.6677C4.79508 14.6677 4.39758 14.6455 4.02445 14.5643C4.82133 16.9625 7.08258 18.7255 9.77133 18.7828C7.67883 20.3945 5.02196 21.3655 2.14571 21.3655C1.64133 21.3655 1.15758 21.3434 0.673828 21.2825C3.39821 23.0123 6.62696 24 10.1089 24C21.4263 24 27.6139 14.7692 27.6139 6.768C27.6139 6.50031 27.6045 6.24185 27.5914 5.98523C28.812 5.1323 29.8376 4.06707 30.6739 2.84123Z" fill="#D4D5D6"/>
</svg>
