<svg width="13" height="13" viewBox="0 0 13 13" fill="none" xmlns="http://www.w3.org/2000/svg">
<path d="M8.55958 4.11587V1.01327C8.55958 0.593846 8.21958 0.253906 7.80018 0.253906H5.18878C4.76938 0.253906 4.42938 0.593846 4.42938 1.01327V4.11587H1.32698C0.907483 4.11587 0.567383 4.45577 0.567383 4.87527V7.48657C0.567383 7.90597 0.907483 8.24597 1.32698 8.24597H4.42938V11.3485C4.42938 11.768 4.76938 12.1079 5.18878 12.1079H7.80018C8.21958 12.1079 8.55958 11.768 8.55958 11.3485V8.24597H11.662C12.0815 8.24597 12.4215 7.90597 12.4215 7.48657V4.87527C12.4215 4.45577 12.0815 4.11587 11.662 4.11587H8.55958Z" fill="#D4D5D6"/>
</svg>
