<svg width="38" height="29" viewBox="0 0 38 29" fill="none" xmlns="http://www.w3.org/2000/svg">
<path d="M38 21.6211V27.3182C38 28.164 37.1431 28.8658 36.0377 28.9254C35.1143 28.9752 34.3611 29 33.7778 29C15.1227 29 0 17.459 0 3.22222C0 2.77709 0.0326167 2.20218 0.09785 1.49753C0.176003 0.653918 1.09554 0 2.2037 0H9.6691C10.211 0 10.6648 0.313232 10.7192 0.724678C10.7681 1.09406 10.8135 1.39061 10.8555 1.61437C11.2825 3.89038 12.1548 6.05675 13.4028 8.06044C13.6031 8.38205 13.4725 8.76701 13.0928 8.97399L8.53638 11.4579C11.3103 16.4029 16.5066 20.3685 22.9862 22.4855L26.235 19.0142C26.5096 18.721 27.0201 18.6201 27.4466 18.7746C30.0719 19.7263 32.9103 20.3912 35.8923 20.7163C36.1836 20.7482 36.5697 20.7825 37.0504 20.8196C37.5896 20.8612 38 21.2075 38 21.6211Z" fill="#D4D5D6"/>
</svg>
