<svg width="27" height="27" viewBox="0 0 27 27" fill="none" xmlns="http://www.w3.org/2000/svg">
<path d="M19.5674 0.746094H7.52731C3.60877 0.746094 0.420898 3.93396 0.420898 7.8525V19.8927C0.420898 23.8111 3.60877 26.9989 7.52731 26.9989H19.5676C23.4859 26.9989 26.6738 23.8111 26.6738 19.8927V7.8525C26.6738 3.93396 23.4859 0.746094 19.5674 0.746094ZM13.5473 21.0508C9.58912 21.0508 6.36901 17.8307 6.36901 13.8725C6.36901 9.91432 9.58912 6.6942 13.5473 6.6942C17.5055 6.6942 20.7256 9.91432 20.7256 13.8725C20.7256 17.8307 17.5055 21.0508 13.5473 21.0508ZM20.8973 8.38708C19.7276 8.38708 18.7762 7.43569 18.7762 6.26597C18.7762 5.09626 19.7276 4.14467 20.8973 4.14467C22.067 4.14467 23.0186 5.09626 23.0186 6.26597C23.0186 7.43569 22.067 8.38708 20.8973 8.38708Z" fill="#D4D5D6"/>
</svg>
