<svg width="26" height="26" viewBox="0 0 26 26" fill="none" xmlns="http://www.w3.org/2000/svg">
<path d="M14.1819 15.7362H20.497C19.3885 18.8703 16.3863 21.1173 12.8714 21.0914C8.60664 21.0599 5.08024 17.6482 4.91468 13.3865C4.7372 8.81824 8.40217 5.04522 12.9317 5.04522C15.0027 5.04522 16.8927 5.83434 18.3175 7.12738C18.655 7.4337 19.1687 7.43568 19.5006 7.12321L21.8202 4.94014C22.1829 4.5987 22.1842 4.02211 21.8226 3.67949C19.5629 1.53873 16.5317 0.204431 13.1891 0.139154C6.05953 -4.21554e-05 0.049983 5.84544 0.000321691 12.9762C-0.0497807 20.1605 5.75901 26.0001 12.9317 26.0001C19.8295 26.0001 25.4644 20.5992 25.8419 13.7957C25.8519 13.7104 25.8585 10.8277 25.8585 10.8277H14.1819C13.7032 10.8277 13.3153 11.2156 13.3153 11.6943V14.8697C13.3153 15.3483 13.7033 15.7362 14.1819 15.7362Z" fill="#D4D5D6"/>
</svg>
