<svg width="36" height="29" viewBox="0 0 36 29" fill="none" xmlns="http://www.w3.org/2000/svg">
<path d="M0.961822 28.9987C0.905544 22.8975 6.77957 17.9516 14.0818 17.9516C21.3841 17.9516 27.3494 22.8975 27.4056 28.9987H0.961822ZM14.0691 16.5707C8.59027 16.5707 4.11846 12.863 4.07624 8.28533C4.03401 3.70769 8.43742 0 13.9162 0C19.3951 0 23.8669 3.70769 23.9091 8.28533C23.9513 12.863 19.5479 16.5707 14.0691 16.5707ZM26.2663 19.6545C31.3757 20.7433 35.244 24.4742 35.6422 28.9987H30.7111C30.6779 25.3948 28.9952 22.1134 26.2663 19.6545ZM22.8943 16.5112C25.5741 14.4886 27.2447 11.5526 27.2146 8.28533C27.1965 6.32815 26.5704 4.48984 25.4872 2.89554C29.2784 3.52675 32.1546 6.31708 32.1855 9.66622C32.2207 13.4809 28.5512 16.5707 23.9855 16.5707C23.6158 16.5707 23.2515 16.5504 22.8943 16.5112Z" fill="#D4D5D6"/>
</svg>
