<svg width="15" height="31" viewBox="0 0 15 31" fill="none" xmlns="http://www.w3.org/2000/svg">
<path d="M8.57143 12.0556H15L14.2857 15.5H8.57143V31H5.71429V15.5H0V12.0556H5.71429V8.83116C5.71429 5.76037 5.97957 4.64683 6.47757 3.5242C6.97557 2.40157 7.70643 1.52052 8.63757 0.920132C9.56886 0.319731 10.4924 0 13.0397 0C13.7854 0 14.4389 0.0861113 15 0.258334V3.44444H13.0397C11.1487 3.44444 10.5729 3.5785 9.985 3.95748C9.55171 4.23686 9.22871 4.62622 8.997 5.1486C8.68257 5.85721 8.57143 6.55145 8.57143 8.83116V12.0556Z" fill="#D4D5D6"/>
</svg>
