<svg width="37" height="29" viewBox="0 0 37 29" fill="none" xmlns="http://www.w3.org/2000/svg">
<path d="M18 0C27.941 0 36.0622 6.49157 36.1388 14.4993C36.2155 22.507 28.2187 28.9987 18.2777 28.9987C8.33653 28.9987 0.215506 22.507 0.138832 14.4993C0.062157 6.49157 8.05887 0 18 0ZM26.3482 7.83517C25.9771 7.53858 25.3973 7.49801 24.9733 7.73899C19.8011 10.6795 16.8816 12.4203 16.2148 12.9614C15.1687 13.8108 15.1819 15.1879 16.2443 16.0373C17.3069 16.8865 19.0165 16.8865 20.0628 16.0373C20.4538 15.7197 22.5901 13.3532 26.4712 8.93765C26.7704 8.59745 26.7182 8.131 26.3482 7.83517ZM28.0249 13.0494C27.0308 13.0494 26.2312 13.6985 26.2388 14.4993C26.2465 15.3001 27.0586 15.9493 28.0527 15.9493C29.0469 15.9493 29.8465 15.3001 29.8388 14.4993C29.8312 13.6985 29.0191 13.0494 28.0249 13.0494ZM8.22495 13.0494C7.23084 13.0494 6.43116 13.6985 6.43883 14.4993C6.4465 15.3001 7.25861 15.9493 8.25271 15.9493C9.24682 15.9493 10.0465 15.3001 10.0388 14.4993C10.0312 13.6985 9.21905 13.0494 8.22495 13.0494ZM12.3475 7.83517C11.6391 7.26892 10.4994 7.26892 9.80188 7.83517C9.10435 8.40139 9.11314 9.31945 9.82151 9.88568C10.5299 10.4519 11.6696 10.4519 12.3671 9.88568C13.0646 9.31945 13.0558 8.40139 12.3475 7.83517ZM18.0486 5.07477C17.0545 5.07477 16.2548 5.72393 16.2625 6.5247C16.2701 7.32547 17.0822 7.97463 18.0764 7.97463C19.0705 7.97463 19.8701 7.32547 19.8625 6.5247C19.8548 5.72393 19.0427 5.07477 18.0486 5.07477Z" fill="#D4D5D6"/>
</svg>
