<svg width="35" height="29" viewBox="0 0 35 29" fill="none" xmlns="http://www.w3.org/2000/svg">
<path d="M21.0151 27.1863C21.0212 27.8489 21.1949 28.4663 21.4978 28.9987H21.4653C20.2677 28.9987 19.2884 27.9848 19.2769 26.7331L19.2643 25.3738L19.2309 21.749C19.2216 20.7465 18.4393 19.9366 17.4802 19.9366H14.0121C13.053 19.9366 12.2856 20.7465 12.2948 21.749L12.3282 25.3738L12.3408 26.7331C12.3523 27.9848 11.3917 28.9987 10.1942 28.9987H8.89364H7.16504C7.08376 28.9987 7.00242 28.993 6.92109 28.9873C6.85612 28.993 6.79114 28.9987 6.72612 28.9987H5.85911C4.66155 28.9987 3.68223 27.9848 3.67068 26.7331L3.61217 20.3897C3.6117 20.3387 3.61118 20.2821 3.61613 20.2311L3.57977 16.2891H1.84033C0.86494 16.2891 0.0989923 15.4962 0.0895363 14.471C0.0848344 13.9613 0.243219 13.5082 0.618879 13.1117L14.396 0.453104C14.7716 0.056638 15.2046 0 15.5839 0C15.9632 0 16.3978 0.113276 16.7255 0.396466L26.6331 9.4189C24.2839 10.2911 22.6149 12.6416 22.6404 15.4055L22.6533 16.7988C21.6241 17.4275 20.9358 18.5943 20.9482 19.9366L21.0151 27.1863ZM28.6928 13.5931C27.7336 13.5931 26.9662 14.4031 26.9755 15.4055L27.0006 18.1242H30.4686L30.4435 15.4055C30.4343 14.4031 29.6519 13.5931 28.6928 13.5931ZM24.3744 15.4055C24.3514 12.9021 26.2726 10.8745 28.6677 10.8745C31.0628 10.8745 33.0215 12.9021 33.0445 15.4055L33.0696 18.1242C34.0288 18.1242 34.8111 18.9341 34.8204 19.9366L34.8872 27.1863C34.8965 28.1887 34.1291 28.9987 33.1699 28.9987H24.4998C23.5407 28.9987 22.7583 28.1887 22.7491 27.1863L22.6822 19.9366C22.673 18.9341 23.4404 18.1242 24.3995 18.1242L24.3744 15.4055Z" fill="#D4D5D6"/>
</svg>
